<svg id="visual" viewBox="0 0 900 600" width="900" height="600" xmlns="http://www.w3.org/2000/svg" xmlns:xlink="http://www.w3.org/1999/xlink" version="1.1"><rect x="0" y="0" width="900" height="600" fill="#001220"></rect><defs><linearGradient id="grad1_0" x1="33.3%" y1="0%" x2="100%" y2="100%"><stop offset="20%" stop-color="#001220" stop-opacity="1"></stop><stop offset="80%" stop-color="#001220" stop-opacity="1"></stop></linearGradient></defs><defs><linearGradient id="grad2_0" x1="0%" y1="0%" x2="66.7%" y2="100%"><stop offset="20%" stop-color="#001220" stop-opacity="1"></stop><stop offset="80%" stop-color="#001220" stop-opacity="1"></stop></linearGradient></defs><g transform="translate(900, 0)"><path d="M0 486.7C-63.5 480.2 -127.1 473.7 -186.3 449.7C-245.5 425.7 -300.4 384.4 -333.8 333.8C-367.1 283.1 -379 223.3 -401 166.1C-422.9 108.9 -454.8 54.5 -486.7 0L0 0Z" fill="#946590"></path></g><g transform="translate(0, 600)"><path d="M0 -486.7C67.9 -485.2 135.9 -483.7 186.3 -449.7C236.7 -415.7 269.6 -349.3 295.6 -295.6C321.6 -241.9 340.7 -201 371.4 -153.8C402.1 -106.7 444.4 -53.4 486.7 0L0 0Z" fill="#946590"></path></g></svg>